<?xml version="1.0" encoding="utf-8"?>
<!-- Generator: Adobe Illustrator 26.0.0, SVG Export Plug-In . SVG Version: 6.00 Build 0)  -->
<svg version="1.1" id="Capa_1" xmlns="http://www.w3.org/2000/svg" xmlns:xlink="http://www.w3.org/1999/xlink" x="0px" y="0px"
	 viewBox="0 0 132 302" style="enable-background:new 0 0 132 302;" xml:space="preserve">
<style type="text/css">
	.st0{fill:#6C63FF;}
	.st1{fill:#3F3D56;}
</style>
<g id="undraw_x5F_dark_x5F_mode_x5F_2xam_1">
	<g id="moon">
		<path id="Vector" class="st0" d="M471.8,119.8c-6.9,0-13.7-1.2-20.2-3.6c-0.4-0.1-0.7-0.3-1-0.6c-0.3-0.3-0.5-0.6-0.7-0.9
			c-0.2-0.4-0.3-0.7-0.3-1.1c0-0.4,0-0.8,0.2-1.2c0.1-0.4,0.3-0.7,0.6-1c0.3-0.3,0.6-0.5,1-0.7c0.4-0.2,0.7-0.3,1.1-0.3
			c0.4,0,0.8,0.1,1.2,0.2c8.5,3.2,17.8,4,26.8,2.5c9-1.5,17.4-5.3,24.5-11.1c-22,0.2-43.6-10.2-54.3-26.9
			c-6.9-10.7-9.1-23.4-6.5-36.6c2-9.6,6.1-18.5,12.1-26.3c-11.4,3.6-21.1,11-27.7,21c-6.6,9.9-9.5,21.8-8.3,33.7
			c0,0.4,0,0.8-0.1,1.2c-0.1,0.4-0.3,0.7-0.6,1s-0.6,0.6-0.9,0.7c-0.3,0.2-0.7,0.3-1.1,0.3s-0.8,0-1.2-0.1c-0.4-0.1-0.7-0.3-1-0.6
			c-0.3-0.2-0.6-0.6-0.7-0.9c-0.2-0.3-0.3-0.7-0.3-1.1c-1.5-14.9,2.9-29.8,12.2-41.6c9.3-11.8,22.8-19.5,37.6-21.6
			c0.6-0.1,1.3,0,1.8,0.3c0.6,0.3,1,0.7,1.3,1.3c0.3,0.6,0.4,1.2,0.3,1.8c-0.1,0.6-0.4,1.2-0.8,1.6c-15.3,15.6-24.7,40.9-10.9,62.4
			c10.9,16.9,34.3,26.6,56.9,23.6c0.6-0.1,1.2,0,1.8,0.3c0.5,0.3,1,0.7,1.3,1.3c0.3,0.5,0.4,1.2,0.3,1.8c-0.1,0.6-0.3,1.2-0.7,1.6
			c-5.5,6.1-12.2,11-19.7,14.3C488.2,118.1,480.1,119.8,471.8,119.8z"/>
		<path id="Vector_2" class="st0" d="M424,121c-4.4,0-8.6-1.3-12.2-3.7c-3.6-2.4-6.4-5.9-8.1-9.9c-1.7-4-2.1-8.4-1.3-12.7
			c0.8-4.3,2.9-8.2,6-11.3c3.1-3.1,7-5.2,11.3-6c4.3-0.8,8.7-0.4,12.7,1.3c4,1.7,7.5,4.5,9.9,8.1c2.4,3.6,3.7,7.9,3.7,12.2
			c0,5.8-2.3,11.4-6.4,15.5C435.4,118.7,429.8,121,424,121z M424,83c-3.2,0-6.3,0.9-8.9,2.7c-2.6,1.8-4.7,4.3-5.9,7.2
			s-1.5,6.1-0.9,9.2c0.6,3.1,2.1,6,4.4,8.2c2.2,2.2,5.1,3.8,8.2,4.4c3.1,0.6,6.3,0.3,9.2-0.9c2.9-1.2,5.4-3.3,7.2-5.9
			c1.8-2.6,2.7-5.7,2.7-8.9c0-4.2-1.7-8.3-4.7-11.3C432.3,84.7,428.2,83,424,83z"/>
	</g>
	<g id="ligth">
		<path id="Vector_3" class="st1" d="M70,280.1V155h-2v125.1c-1.2,0.2-2.3,0.9-3,1.9c-0.7,1-1.1,2.2-0.9,3.5
			c0.1,1.2,0.7,2.4,1.6,3.2c0.9,0.8,2.1,1.3,3.4,1.3c1.2,0,2.4-0.5,3.4-1.3c0.9-0.8,1.5-2,1.6-3.2c0.1-1.2-0.2-2.5-0.9-3.5
			C72.3,281,71.2,280.3,70,280.1z M69,288c-0.6,0-1.2-0.2-1.7-0.5c-0.5-0.3-0.9-0.8-1.1-1.3c-0.2-0.5-0.3-1.2-0.2-1.7
			c0.1-0.6,0.4-1.1,0.8-1.5c0.4-0.4,1-0.7,1.5-0.8c0.6-0.1,1.2-0.1,1.7,0.2c0.5,0.2,1,0.6,1.3,1.1c0.3,0.5,0.5,1.1,0.5,1.7
			c0,0.8-0.3,1.6-0.9,2.1C70.6,287.7,69.8,288,69,288z"/>
		<path id="Vector_4" class="st0" d="M67.4,35.6c-1.1,0-2.2-0.5-3.1-1.3c-0.8-0.8-1.3-1.9-1.3-3.1V18.3c0-1.1,0.5-2.2,1.3-3
			c0.8-0.8,1.9-1.3,3-1.3c1.1,0,2.2,0.5,3,1.3c0.8,0.8,1.3,1.9,1.3,3v12.9c0,0.6-0.1,1.1-0.3,1.7c-0.2,0.5-0.5,1-0.9,1.4
			c-0.4,0.4-0.9,0.7-1.4,0.9C68.6,35.5,68,35.6,67.4,35.6z"/>
		<path id="Vector_5" class="st0" d="M67.4,134.8c-0.6,0-1.1-0.1-1.7-0.3c-0.5-0.2-1-0.5-1.4-0.9c-0.4-0.4-0.7-0.9-0.9-1.4
			c-0.2-0.5-0.3-1.1-0.3-1.6v-12.9c0-0.6,0.1-1.1,0.3-1.7c0.2-0.5,0.5-1,0.9-1.4c0.4-0.4,0.9-0.7,1.4-0.9c0.5-0.2,1.1-0.3,1.7-0.3
			c0.6,0,1.1,0.1,1.7,0.3c0.5,0.2,1,0.5,1.4,0.9c0.4,0.4,0.7,0.9,0.9,1.4s0.3,1.1,0.3,1.7v12.9c0,0.6-0.1,1.1-0.3,1.6
			c-0.2,0.5-0.5,1-0.9,1.4s-0.9,0.7-1.4,0.9C68.6,134.7,68,134.8,67.4,134.8z"/>
		<path id="Vector_6" class="st0" d="M97.9,48.2c-0.9,0-1.7-0.3-2.4-0.7c-0.7-0.5-1.3-1.1-1.6-1.9c-0.3-0.8-0.4-1.7-0.2-2.5
			c0.2-0.8,0.6-1.6,1.2-2.2l9.2-9.2c0.8-0.8,1.9-1.3,3.1-1.3c1.1,0,2.2,0.5,3,1.3c0.8,0.8,1.3,1.9,1.3,3c0,1.1-0.5,2.2-1.3,3.1
			l-9.2,9.2c-0.4,0.4-0.9,0.7-1.4,0.9C99.1,48.1,98.5,48.2,97.9,48.2z"/>
		<path id="Vector_7" class="st0" d="M27.8,118.4c-0.9,0-1.7-0.3-2.4-0.7c-0.7-0.5-1.3-1.1-1.6-1.9c-0.3-0.8-0.4-1.7-0.2-2.5
			c0.2-0.8,0.6-1.6,1.2-2.2l9.2-9.1c0.8-0.8,1.9-1.3,3-1.3c1.1,0,2.2,0.5,3.1,1.3c0.8,0.8,1.3,1.9,1.3,3.1c0,1.1-0.5,2.2-1.3,3.1
			l-9.2,9.2c-0.4,0.4-0.9,0.7-1.4,0.9C28.9,118.3,28.3,118.4,27.8,118.4z"/>
		<path id="Vector_8" class="st0" d="M123.5,78.7h-12.9c-1.1,0-2.2-0.5-3-1.3c-0.8-0.8-1.3-1.9-1.3-3c0-1.1,0.5-2.2,1.3-3
			c0.8-0.8,1.9-1.3,3-1.3h12.9c0.6,0,1.1,0.1,1.7,0.3c0.5,0.2,1,0.5,1.4,0.9s0.7,0.9,0.9,1.4c0.2,0.5,0.3,1.1,0.3,1.7
			s-0.1,1.1-0.3,1.7c-0.2,0.5-0.5,1-0.9,1.4c-0.4,0.4-0.9,0.7-1.4,0.9C124.6,78.6,124.1,78.7,123.5,78.7z"/>
		<path id="Vector_9" class="st0" d="M24.3,78.7H11.4c-0.6,0-1.1-0.1-1.7-0.3c-0.5-0.2-1-0.5-1.4-0.9C7.9,77,7.6,76.6,7.4,76
			C7.1,75.5,7,75,7,74.4s0.1-1.1,0.3-1.7c0.2-0.5,0.5-1,0.9-1.4c0.4-0.4,0.9-0.7,1.4-0.9c0.5-0.2,1.1-0.3,1.7-0.3h12.9
			c1.1,0,2.2,0.5,3,1.3c0.8,0.8,1.3,1.9,1.3,3c0,1.1-0.5,2.2-1.3,3C26.5,78.3,25.4,78.7,24.3,78.7z"/>
		<path id="Vector_10" class="st0" d="M107.1,118.4c-0.6,0-1.1-0.1-1.7-0.3c-0.5-0.2-1-0.5-1.4-0.9l-9.2-9.2
			c-0.4-0.4-0.7-0.9-0.9-1.4c-0.2-0.5-0.3-1.1-0.3-1.7c0-0.6,0.1-1.1,0.3-1.7c0.2-0.5,0.5-1,0.9-1.4s0.9-0.7,1.4-0.9
			c0.5-0.2,1.1-0.3,1.7-0.3c0.6,0,1.1,0.1,1.7,0.3c0.5,0.2,1,0.5,1.4,0.9l9.2,9.1c0.6,0.6,1,1.4,1.2,2.2c0.2,0.8,0.1,1.7-0.2,2.5
			c-0.3,0.8-0.9,1.5-1.6,1.9C108.8,118.1,107.9,118.4,107.1,118.4z"/>
		<path id="Vector_11" class="st0" d="M36.9,48.2c-0.6,0-1.1-0.1-1.7-0.3c-0.5-0.2-1-0.5-1.4-0.9l-9.2-9.2c-0.4-0.4-0.7-0.9-0.9-1.4
			c-0.2-0.5-0.3-1.1-0.3-1.7c0-0.6,0.1-1.1,0.3-1.7c0.2-0.5,0.5-1,0.9-1.4c0.4-0.4,0.9-0.7,1.4-0.9c0.5-0.2,1.1-0.3,1.7-0.3
			c0.6,0,1.1,0.1,1.6,0.3c0.5,0.2,1,0.5,1.4,0.9l9.2,9.2c0.6,0.6,1,1.4,1.2,2.2c0.2,0.8,0.1,1.7-0.2,2.5c-0.3,0.8-0.9,1.5-1.6,1.9
			S37.8,48.2,36.9,48.2z"/>
		<path id="Vector_12" class="st0" d="M67.4,100.3c-5.1,0-10.1-1.5-14.4-4.4c-4.3-2.8-7.6-6.9-9.5-11.6c-2-4.7-2.5-9.9-1.5-15
			c1-5,3.5-9.6,7.1-13.3c3.6-3.6,8.2-6.1,13.3-7.1c5-1,10.2-0.5,15,1.5c4.7,2,8.8,5.3,11.6,9.5c2.8,4.3,4.4,9.3,4.4,14.4
			c0,6.9-2.7,13.4-7.6,18.3C80.9,97.5,74.3,100.3,67.4,100.3z M67.4,57.1c-3.4,0-6.7,1-9.6,2.9c-2.8,1.9-5,4.6-6.4,7.7
			s-1.6,6.6-1,10s2.3,6.4,4.7,8.8s5.5,4.1,8.8,4.7c3.3,0.7,6.8,0.3,10-1s5.8-3.5,7.7-6.4c1.9-2.8,2.9-6.2,2.9-9.6
			c0-4.6-1.8-9-5.1-12.2S72,57.1,67.4,57.1z"/>
	</g>
</g>
</svg>
