<?xml version="1.0" encoding="utf-8"?>
<!-- Generator: Adobe Illustrator 26.0.0, SVG Export Plug-In . SVG Version: 6.00 Build 0)  -->
<svg version="1.1" id="Capa_1" xmlns="http://www.w3.org/2000/svg" xmlns:xlink="http://www.w3.org/1999/xlink" x="0px" y="0px"
	 viewBox="0 0 132 145" style="enable-background:new 0 0 132 145;" xml:space="preserve">
<style type="text/css">
	.st0{fill:#6C63FF;}
</style>
<g id="moon">
	<path id="Vector" class="st0" d="M78.8,127c-6.9,0-13.7-1.2-20.2-3.6c-0.4-0.1-0.7-0.3-1-0.6c-0.3-0.3-0.5-0.6-0.7-0.9
		c-0.2-0.4-0.3-0.7-0.3-1.1c0-0.4,0-0.8,0.2-1.2c0.1-0.4,0.3-0.7,0.6-1c0.3-0.3,0.6-0.5,1-0.7c0.4-0.2,0.7-0.3,1.1-0.3
		c0.4,0,0.8,0.1,1.2,0.2c8.5,3.2,17.8,4,26.8,2.5c9-1.5,17.4-5.3,24.5-11.1c-22,0.2-43.6-10.2-54.3-26.9
		c-6.9-10.7-9.1-23.4-6.5-36.6c2-9.6,6.1-18.5,12.1-26.3c-11.4,3.6-21.1,11-27.7,21c-6.6,9.9-9.5,21.8-8.3,33.7c0,0.4,0,0.8-0.1,1.2
		c-0.1,0.4-0.3,0.7-0.6,1s-0.6,0.6-0.9,0.7c-0.3,0.2-0.7,0.3-1.1,0.3s-0.8,0-1.2-0.1c-0.4-0.1-0.7-0.3-1-0.6
		c-0.3-0.2-0.6-0.6-0.7-0.9c-0.2-0.3-0.3-0.7-0.3-1.1c-1.5-14.9,2.9-29.8,12.2-41.6C42.7,21.4,56.2,13.7,71,11.6
		c0.6-0.1,1.3,0,1.8,0.3c0.6,0.3,1,0.7,1.3,1.3c0.3,0.6,0.4,1.2,0.3,1.8c-0.1,0.6-0.4,1.2-0.8,1.6C58.3,32.3,48.9,57.6,62.7,79.1
		c10.9,16.9,34.3,26.6,56.9,23.6c0.6-0.1,1.2,0,1.8,0.3c0.5,0.3,1,0.7,1.3,1.3c0.3,0.5,0.4,1.2,0.3,1.8c-0.1,0.6-0.3,1.2-0.7,1.6
		c-5.5,6.1-12.2,11-19.7,14.3C95.1,125.3,87,127,78.8,127z"/>
	<path id="Vector_2" class="st0" d="M30.9,128.2c-4.4,0-8.6-1.3-12.2-3.7c-3.6-2.4-6.4-5.9-8.1-9.9c-1.7-4-2.1-8.4-1.3-12.7
		c0.8-4.3,2.9-8.2,6-11.3c3.1-3.1,7-5.2,11.3-6c4.3-0.8,8.7-0.4,12.7,1.3c4,1.7,7.5,4.5,9.9,8.1c2.4,3.6,3.7,7.9,3.7,12.2
		c0,5.8-2.3,11.4-6.4,15.5C42.4,125.9,36.8,128.2,30.9,128.2z M30.9,90.2c-3.2,0-6.3,0.9-8.9,2.7c-2.6,1.8-4.7,4.3-5.9,7.2
		s-1.5,6.1-0.9,9.2c0.6,3.1,2.1,6,4.4,8.2c2.2,2.2,5.1,3.8,8.2,4.4c3.1,0.6,6.3,0.3,9.2-0.9c2.9-1.2,5.4-3.3,7.2-5.9
		c1.8-2.6,2.7-5.7,2.7-8.9c0-4.2-1.7-8.3-4.7-11.3C39.3,91.9,35.2,90.2,30.9,90.2z"/>
</g>
</svg>
