<svg width="770" height="772" viewBox="0 0 770 772" fill="none" xmlns="http://www.w3.org/2000/svg">
<g id="undraw_dark_mode_2xam 1">
<g id="moon">
<path id="Vector" d="M574.849 248.809C567.965 248.815 561.135 247.582 554.687 245.17C554.318 245.032 553.98 244.822 553.692 244.553C553.404 244.284 553.172 243.961 553.009 243.603C552.846 243.244 552.755 242.857 552.742 242.463C552.728 242.07 552.792 241.677 552.931 241.308C553.069 240.939 553.278 240.601 553.547 240.313C553.816 240.025 554.139 239.793 554.498 239.63C554.856 239.467 555.244 239.376 555.637 239.363C556.031 239.349 556.424 239.414 556.792 239.552C565.341 242.711 574.566 243.586 583.557 242.09C592.547 240.594 600.991 236.779 608.056 231.021C586.018 231.255 564.461 220.84 553.737 204.128C546.842 193.385 544.588 180.744 547.216 167.57C549.229 158.017 553.36 149.037 559.305 141.293C547.954 144.905 538.184 152.302 531.628 162.248C525.072 172.193 522.126 184.087 523.282 195.943C523.322 196.336 523.284 196.733 523.171 197.111C523.057 197.489 522.871 197.841 522.621 198.147C522.371 198.453 522.063 198.706 521.715 198.893C521.367 199.08 520.986 199.196 520.593 199.235C520.2 199.274 519.804 199.235 519.426 199.12C519.048 199.005 518.697 198.817 518.392 198.566C518.087 198.316 517.834 198.007 517.649 197.658C517.463 197.31 517.349 196.928 517.311 196.535C515.854 181.619 520.223 166.716 529.504 154.948C538.784 143.18 552.258 135.457 567.103 133.397C567.724 133.311 568.356 133.421 568.911 133.713C569.466 134.004 569.915 134.462 570.197 135.021C570.478 135.581 570.577 136.215 570.48 136.835C570.382 137.454 570.094 138.027 569.654 138.473C554.31 154.059 544.999 179.402 558.786 200.888C569.664 217.837 593.069 227.532 615.714 224.468C616.322 224.386 616.94 224.491 617.485 224.771C618.031 225.051 618.478 225.491 618.765 226.032C619.053 226.574 619.168 227.19 619.095 227.799C619.022 228.407 618.764 228.979 618.356 229.436C612.873 235.542 606.164 240.422 598.667 243.76C591.171 247.098 583.055 248.818 574.849 248.809Z" fill="#6C63FF"/>
<path id="Vector_2" d="M527.001 250C522.65 250 518.397 248.71 514.779 246.292C511.161 243.875 508.341 240.439 506.676 236.419C505.011 232.399 504.575 227.976 505.424 223.708C506.273 219.44 508.368 215.52 511.445 212.444C514.522 209.367 518.442 207.272 522.709 206.423C526.977 205.574 531.401 206.01 535.421 207.675C539.441 209.34 542.876 212.16 545.294 215.777C547.711 219.395 549.001 223.649 549.001 228C548.995 233.833 546.675 239.425 542.551 243.549C538.426 247.673 532.834 249.993 527.001 250ZM527.001 212C523.837 212 520.744 212.938 518.112 214.697C515.481 216.455 513.43 218.953 512.219 221.877C511.008 224.801 510.692 228.018 511.309 231.121C511.926 234.225 513.45 237.076 515.688 239.314C517.925 241.551 520.776 243.075 523.88 243.693C526.984 244.31 530.201 243.993 533.124 242.782C536.048 241.571 538.547 239.52 540.305 236.889C542.063 234.258 543.001 231.165 543.001 228C542.997 223.758 541.309 219.691 538.31 216.692C535.31 213.692 531.243 212.005 527.001 212Z" fill="#6C63FF"/>
</g>
<g id="ligth">
<path id="Vector_3" d="M173.001 409.101V284H171.001V409.101C169.787 409.349 168.709 410.039 167.974 411.037C167.24 412.035 166.902 413.27 167.027 414.503C167.151 415.735 167.729 416.878 168.648 417.709C169.567 418.54 170.762 419 172.001 419C173.241 419 174.435 418.54 175.355 417.709C176.274 416.878 176.852 415.735 176.976 414.503C177.101 413.27 176.763 412.035 176.029 411.037C175.294 410.039 174.216 409.349 173.001 409.101ZM172.001 417C171.408 417 170.828 416.824 170.335 416.494C169.841 416.165 169.457 415.696 169.23 415.148C169.003 414.6 168.943 413.997 169.059 413.415C169.175 412.833 169.461 412.298 169.88 411.879C170.3 411.459 170.834 411.173 171.416 411.058C171.998 410.942 172.601 411.001 173.15 411.228C173.698 411.455 174.166 411.84 174.496 412.333C174.826 412.827 175.001 413.407 175.001 414C175.001 414.795 174.684 415.558 174.122 416.12C173.559 416.683 172.797 416.999 172.001 417Z" fill="#3F3D56"/>
<path id="Vector_4" d="M170.435 164.569C169.29 164.569 168.193 164.115 167.384 163.306C166.575 162.497 166.121 161.399 166.121 160.255V147.314C166.122 146.171 166.578 145.075 167.387 144.268C168.195 143.46 169.292 143.007 170.435 143.007C171.578 143.007 172.674 143.46 173.483 144.268C174.291 145.075 174.747 146.171 174.748 147.314V160.255C174.748 160.822 174.637 161.383 174.42 161.906C174.203 162.43 173.885 162.905 173.485 163.306C173.084 163.706 172.609 164.024 172.085 164.241C171.562 164.458 171.001 164.569 170.435 164.569Z" fill="#6C63FF"/>
<path id="Vector_5" d="M170.435 263.787C169.868 263.787 169.307 263.676 168.784 263.459C168.26 263.242 167.785 262.925 167.384 262.524C166.984 262.123 166.666 261.648 166.449 261.124C166.232 260.601 166.121 260.04 166.121 259.474V246.532C166.12 245.965 166.231 245.403 166.447 244.879C166.664 244.355 166.981 243.879 167.382 243.477C167.783 243.076 168.258 242.758 168.782 242.541C169.306 242.323 169.867 242.212 170.435 242.212C171.002 242.212 171.563 242.323 172.087 242.541C172.611 242.758 173.087 243.076 173.487 243.477C173.888 243.879 174.206 244.355 174.422 244.879C174.638 245.403 174.749 245.965 174.748 246.532V259.474C174.748 260.04 174.637 260.601 174.42 261.124C174.203 261.648 173.886 262.123 173.485 262.524C173.084 262.925 172.609 263.242 172.085 263.459C171.562 263.676 171.001 263.787 170.435 263.787Z" fill="#6C63FF"/>
<path id="Vector_6" d="M200.939 177.203C200.085 177.203 199.251 176.95 198.542 176.476C197.833 176.002 197.28 175.328 196.953 174.54C196.627 173.752 196.541 172.885 196.708 172.048C196.874 171.211 197.285 170.442 197.888 169.839L207.039 160.688C207.848 159.88 208.945 159.426 210.089 159.427C211.233 159.427 212.329 159.882 213.138 160.69C213.947 161.499 214.401 162.596 214.402 163.739C214.402 164.883 213.948 165.98 213.14 166.789L203.989 175.94C203.589 176.341 203.113 176.659 202.59 176.876C202.066 177.093 201.505 177.204 200.939 177.203Z" fill="#6C63FF"/>
<path id="Vector_7" d="M130.78 247.362C129.926 247.362 129.092 247.109 128.383 246.635C127.674 246.161 127.121 245.488 126.794 244.699C126.468 243.911 126.382 243.044 126.549 242.207C126.715 241.37 127.126 240.602 127.729 239.998L136.88 230.848C137.689 230.039 138.786 229.584 139.93 229.584C141.074 229.584 142.172 230.038 142.981 230.847C143.79 231.656 144.244 232.754 144.244 233.898C144.244 235.042 143.79 236.139 142.981 236.948L133.83 246.099C133.43 246.5 132.954 246.818 132.431 247.035C131.907 247.252 131.346 247.363 130.78 247.362Z" fill="#6C63FF"/>
<path id="Vector_8" d="M226.514 207.708H213.573C212.43 207.706 211.334 207.251 210.527 206.442C209.719 205.633 209.266 204.537 209.266 203.394C209.266 202.251 209.719 201.154 210.527 200.346C211.334 199.537 212.43 199.082 213.573 199.08H226.514C227.081 199.079 227.643 199.19 228.167 199.406C228.691 199.623 229.168 199.94 229.569 200.341C229.97 200.742 230.289 201.218 230.506 201.741C230.723 202.265 230.835 202.827 230.835 203.394C230.835 203.961 230.723 204.522 230.506 205.046C230.289 205.57 229.97 206.046 229.569 206.446C229.168 206.847 228.691 207.165 228.167 207.381C227.643 207.597 227.081 207.708 226.514 207.708Z" fill="#6C63FF"/>
<path id="Vector_9" d="M127.296 207.708H114.355C113.788 207.708 113.226 207.597 112.702 207.381C112.178 207.165 111.701 206.847 111.3 206.446C110.899 206.046 110.581 205.57 110.363 205.046C110.146 204.522 110.034 203.961 110.034 203.394C110.034 202.827 110.146 202.265 110.363 201.741C110.581 201.218 110.899 200.742 111.3 200.341C111.701 199.94 112.178 199.623 112.702 199.406C113.226 199.19 113.788 199.079 114.355 199.08H127.296C128.439 199.082 129.535 199.537 130.342 200.346C131.15 201.154 131.604 202.251 131.604 203.394C131.604 204.537 131.15 205.633 130.342 206.442C129.535 207.251 128.439 207.706 127.296 207.708Z" fill="#6C63FF"/>
<path id="Vector_10" d="M210.09 247.362C209.523 247.363 208.962 247.252 208.438 247.035C207.915 246.818 207.439 246.5 207.039 246.099L197.888 236.948C197.487 236.548 197.169 236.072 196.951 235.549C196.734 235.025 196.622 234.464 196.622 233.897C196.621 233.33 196.733 232.769 196.949 232.245C197.166 231.721 197.484 231.245 197.885 230.844C198.286 230.443 198.762 230.125 199.286 229.909C199.809 229.692 200.371 229.58 200.938 229.581C201.505 229.581 202.066 229.693 202.589 229.91C203.113 230.128 203.589 230.446 203.989 230.848L213.14 239.998C213.743 240.602 214.154 241.37 214.32 242.207C214.487 243.044 214.401 243.911 214.075 244.7C213.748 245.488 213.195 246.161 212.486 246.635C211.777 247.11 210.943 247.362 210.09 247.362Z" fill="#6C63FF"/>
<path id="Vector_11" d="M139.93 177.203C139.364 177.204 138.803 177.093 138.279 176.876C137.756 176.659 137.28 176.341 136.88 175.94L127.729 166.789C127.329 166.389 127.011 165.913 126.794 165.39C126.577 164.866 126.466 164.305 126.466 163.739C126.466 163.172 126.577 162.611 126.794 162.088C127.011 161.564 127.329 161.089 127.729 160.688C128.13 160.288 128.605 159.97 129.129 159.753C129.652 159.536 130.213 159.425 130.78 159.425C131.346 159.425 131.907 159.536 132.43 159.753C132.954 159.97 133.429 160.288 133.83 160.688L142.981 169.839C143.584 170.442 143.995 171.211 144.161 172.048C144.328 172.885 144.242 173.752 143.916 174.54C143.589 175.328 143.036 176.002 142.327 176.476C141.618 176.95 140.784 177.203 139.93 177.203Z" fill="#6C63FF"/>
<path id="Vector_12" d="M170.435 229.277C165.315 229.277 160.311 227.759 156.055 224.915C151.798 222.071 148.481 218.028 146.522 213.299C144.563 208.569 144.05 203.365 145.049 198.344C146.048 193.323 148.513 188.711 152.132 185.092C155.752 181.472 160.364 179.007 165.385 178.008C170.406 177.009 175.61 177.522 180.34 179.481C185.069 181.44 189.111 184.757 191.955 189.014C194.8 193.27 196.318 198.275 196.318 203.394C196.31 210.256 193.58 216.835 188.728 221.687C183.876 226.54 177.297 229.269 170.435 229.277ZM170.435 186.138C167.022 186.138 163.686 187.15 160.848 189.046C158.01 190.942 155.799 193.637 154.493 196.79C153.187 199.943 152.845 203.413 153.511 206.76C154.177 210.107 155.82 213.182 158.233 215.595C160.646 218.008 163.721 219.652 167.068 220.317C170.415 220.983 173.885 220.642 177.038 219.336C180.191 218.03 182.886 215.818 184.782 212.98C186.678 210.143 187.69 206.806 187.69 203.394C187.685 198.819 185.865 194.433 182.63 191.198C179.395 187.963 175.009 186.144 170.435 186.138Z" fill="#6C63FF"/>
</g>
</g>
</svg>
