<svg width="929" height="709" viewBox="0 0 929 709" fill="none" xmlns="http://www.w3.org/2000/svg">
<g id="noticias 1">
<g id="titular">
<path id="Vector" d="M558 146H19C13.9623 146.004 9.13221 148.007 5.57001 151.57C2.0078 155.132 0.00455956 159.962 0 165V223C0.00455956 228.037 2.0078 232.867 5.57001 236.43C9.13221 239.992 13.9623 241.995 19 242H558C563.038 241.995 567.868 239.992 571.43 236.43C574.992 232.867 576.995 228.037 577 223V165C576.995 159.962 574.992 155.132 571.43 151.57C567.868 148.007 563.038 146.004 558 146ZM575 223C574.994 227.506 573.201 231.827 570.014 235.013C566.827 238.2 562.507 239.993 558 240H19C14.4933 239.993 10.173 238.2 6.98624 235.013C3.7995 231.827 2.00638 227.506 2 223V165C2.00638 160.493 3.7995 156.173 6.98624 152.986C10.173 149.799 14.4933 148.006 19 148H558C562.507 148.006 566.827 149.799 570.014 152.986C573.201 156.173 574.994 160.493 575 165V223Z" fill="#3F3D56"/>
<path id="Vector_2" d="M107.831 226.5H75.8307C71.4561 226.495 67.2622 224.755 64.1689 221.661C61.0756 218.568 59.3356 214.374 59.3307 210V178C59.3356 173.625 61.0756 169.431 64.1689 166.338C67.2622 163.245 71.4561 161.505 75.8307 161.5H107.831C112.205 161.505 116.399 163.245 119.492 166.338C122.586 169.431 124.326 173.625 124.331 178V210C124.326 214.374 122.586 218.568 119.492 221.661C116.399 224.755 112.205 226.495 107.831 226.5Z" fill="#6C63FF"/>
<path id="Vector_3" d="M509.169 221H156.169C154.048 221 152.013 220.157 150.512 218.656C149.012 217.156 148.169 215.121 148.169 213C148.169 210.878 149.012 208.843 150.512 207.343C152.013 205.842 154.048 205 156.169 205H509.169C511.291 205 513.326 205.842 514.826 207.343C516.326 208.843 517.169 210.878 517.169 213C517.169 215.121 516.326 217.156 514.826 218.656C513.326 220.157 511.291 221 509.169 221Z" fill="#CCCCCC"/>
<path id="Vector_4" d="M394.169 187H156.169C154.048 187 152.013 186.157 150.512 184.656C149.012 183.156 148.169 181.121 148.169 179C148.169 176.878 149.012 174.843 150.512 173.343C152.013 171.842 154.048 171 156.169 171H394.169C396.291 171 398.326 171.842 399.826 173.343C401.326 174.843 402.169 176.878 402.169 179C402.169 181.121 401.326 183.156 399.826 184.656C398.326 186.157 396.291 187 394.169 187Z" fill="#CCCCCC"/>
</g>
<g id="titular2">
<path id="Vector_5" d="M558 379H19C13.9626 378.994 9.13326 376.99 5.5713 373.428C2.00935 369.866 0.00572222 365.037 0 360V302C0.00572222 296.962 2.00935 292.133 5.5713 288.571C9.13326 285.009 13.9626 283.005 19 283H558C563.037 283.005 567.867 285.009 571.429 288.571C574.991 292.133 576.994 296.962 577 302V360C576.994 365.037 574.991 369.866 571.429 373.428C567.867 376.99 563.037 378.994 558 379ZM19 285C14.4929 285.005 10.1718 286.797 6.98477 289.984C3.79775 293.171 2.00505 297.493 2 302V360C2.00505 364.507 3.79775 368.828 6.98477 372.015C10.1718 375.202 14.4929 376.995 19 377H558C562.507 376.995 566.828 375.202 570.015 372.015C573.202 368.828 574.995 364.507 575 360V302C574.995 297.493 573.202 293.171 570.015 289.984C566.828 286.797 562.507 285.005 558 285H19Z" fill="#3F3D56"/>
<path id="Vector_6" d="M107.831 363.5H75.8307C71.4561 363.495 67.2622 361.755 64.1689 358.661C61.0756 355.568 59.3356 351.374 59.3307 347V315C59.3356 310.625 61.0756 306.431 64.1689 303.338C67.2622 300.245 71.4561 298.505 75.8307 298.5H107.831C112.205 298.505 116.399 300.245 119.492 303.338C122.586 306.431 124.326 310.625 124.331 315V347C124.326 351.374 122.586 355.568 119.492 358.661C116.399 361.755 112.205 363.495 107.831 363.5Z" fill="#6C63FF"/>
<path id="Vector_7" d="M509.169 358H156.169C154.048 358 152.013 357.157 150.512 355.656C149.012 354.156 148.169 352.121 148.169 350C148.169 347.878 149.012 345.843 150.512 344.343C152.013 342.842 154.048 342 156.169 342H509.169C511.291 342 513.326 342.842 514.826 344.343C516.326 345.843 517.169 347.878 517.169 350C517.169 352.121 516.326 354.156 514.826 355.656C513.326 357.157 511.291 358 509.169 358Z" fill="#CCCCCC"/>
<path id="Vector_8" d="M394.169 324H156.169C154.048 324 152.013 323.157 150.512 321.656C149.012 320.156 148.169 318.121 148.169 316C148.169 313.878 149.012 311.843 150.512 310.343C152.013 308.842 154.048 308 156.169 308H394.169C396.291 308 398.326 308.842 399.826 310.343C401.326 311.843 402.169 313.878 402.169 316C402.169 318.121 401.326 320.156 399.826 321.656C398.326 323.157 396.291 324 394.169 324Z" fill="#CCCCCC"/>
</g>
<g id="titular3">
<path id="Vector_9" d="M558 516H19C13.9626 515.994 9.13326 513.99 5.5713 510.428C2.00935 506.866 0.00572222 502.037 0 497V439C0.00572222 433.962 2.00935 429.133 5.5713 425.571C9.13326 422.009 13.9626 420.005 19 420H558C563.037 420.005 567.867 422.009 571.429 425.571C574.991 429.133 576.994 433.962 577 439V497C576.994 502.037 574.991 506.866 571.429 510.428C567.867 513.99 563.037 515.994 558 516ZM19 422C14.4929 422.005 10.1718 423.797 6.98477 426.984C3.79775 430.171 2.00505 434.493 2 439V497C2.00505 501.507 3.79775 505.828 6.98477 509.015C10.1718 512.202 14.4929 513.995 19 514H558C562.507 513.995 566.828 512.202 570.015 509.015C573.202 505.828 574.995 501.507 575 497V439C574.995 434.493 573.202 430.171 570.015 426.984C566.828 423.797 562.507 422.005 558 422H19Z" fill="#3F3D56"/>
<path id="Vector_10" d="M107.831 500.5H75.8307C71.4561 500.495 67.2622 498.755 64.1689 495.661C61.0756 492.568 59.3356 488.374 59.3307 484V452C59.3356 447.625 61.0756 443.431 64.1689 440.338C67.2622 437.245 71.4561 435.505 75.8307 435.5H107.831C112.205 435.505 116.399 437.245 119.492 440.338C122.586 443.431 124.326 447.625 124.331 452V484C124.326 488.374 122.586 492.568 119.492 495.661C116.399 498.755 112.205 500.495 107.831 500.5Z" fill="#6C63FF"/>
<path id="Vector_11" d="M509.169 495H156.169C154.048 495 152.013 494.157 150.512 492.656C149.012 491.156 148.169 489.121 148.169 487C148.169 484.878 149.012 482.843 150.512 481.343C152.013 479.842 154.048 479 156.169 479H509.169C511.291 479 513.326 479.842 514.826 481.343C516.326 482.843 517.169 484.878 517.169 487C517.169 489.121 516.326 491.156 514.826 492.656C513.326 494.157 511.291 495 509.169 495Z" fill="#CCCCCC"/>
<path id="Vector_12" d="M394.169 461H156.169C154.048 461 152.013 460.157 150.512 458.656C149.012 457.156 148.169 455.121 148.169 453C148.169 450.878 149.012 448.843 150.512 447.343C152.013 445.842 154.048 445 156.169 445H394.169C396.291 445 398.326 445.842 399.826 447.343C401.326 448.843 402.169 450.878 402.169 453C402.169 455.121 401.326 457.156 399.826 458.656C398.326 460.157 396.291 461 394.169 461Z" fill="#CCCCCC"/>
</g>
</g>
</svg>
